# xmcd CD database file
#
# Track frame offsets:
#	150
#	14147
#	29510
#	45167
#	58878
#	74224
#	91431
#	107398
#	121654
#	139027
#	152301
#	168041
#
# Disc length: 2488 seconds
#
# Revision: 1
# Processed by: cddbd v1.5.2PL0 Copyright (c) Steve Scherf et al.
# Submitted via: CDex 1.51
#
DISCID=9709b60c
DTITLE=Kellie Pickler - The Woman I Am
DYEAR=2013
DGENRE=Country
TTITLE0=Little Bit Gypsy
TTITLE1=Ring For Sale
TTITLE2=Buzzin'
TTITLE3=The Woman I Am
TTITLE4=Closer To Nowhere
TTITLE5=Selma Drye
TTITLE6=I Forgive You
TTITLE7=Bonnie And Clyde
TTITLE8=Where Did Your Love Go
TTITLE9=No Cure For Crazy
TTITLE10=Tough All Over
TTITLE11=Someone Somewhere Tonight
EXTD=YEAR: 2013
EXTT0=
EXTT1=
EXTT2=
EXTT3=
EXTT4=
EXTT5=
EXTT6=
EXTT7=
EXTT8=
EXTT9=
EXTT10=
EXTT11=
PLAYORDER=
